<?xml version="1.0" encoding="utf-8"?><svg xmlns="http://www.w3.org/2000/svg" xmlns:xlink="http://www.w3.org/1999/xlink"><symbol viewBox="0 0 34.1 33" id="arrows_down" xmlns="http://www.w3.org/2000/svg"><path d="M16.3 19.6c.2.2.5.3.8.3s.7-.2 1-.4l15.8-16c.2-.2.4-.5.4-.8s-.2-.5-.4-.8L32 .3c0-.2-.4-.3-.7-.3-.3 0-.6 0-.8.3L17 13.8 3.7.3C3.4 0 3 0 2.8 0c-.3 0-.5 0-.8.3L.4 2c-.3.3-.4.5-.4.8 0 .3 0 .6.4.8l16 16z"/><path d="M32 13.5c0-.2-.4-.3-.7-.3-.3 0-.6 0-.8.4L17 27 3.7 13.4c-.2-.2-.5-.4-.8-.4-.3 0-.6.2-.8.5L.3 15.2c-.2.2-.3.4-.3.7 0 .2 0 .5.4.7l16 16s.4.3.7.3.7 0 1-.4l15.8-16c.2 0 .4-.4.4-.7 0-.4 0-.7-.4-1L32 13.6z"/></symbol><symbol id="bar-menu" viewBox="0 0 30 24.4" xmlns="http://www.w3.org/2000/svg"><style>.bst0{fill:#444}</style><path class="bst0" d="M0 0h30v5.6H0V0zm0 9.4h30V15H0V9.4zm0 9.4h30v5.6H0v-5.6z"/></symbol><symbol viewBox="0 0 15 32" id="facebook" xmlns="http://www.w3.org/2000/svg"><title>facebook</title><path d="M10.016 12.672h4.992v4.992h-4.992v11.648H4.992V17.664H0v-4.992h4.992V10.56q0-1.6.512-3.264T6.88 4.704q1.856-2.048 4.64-2.048h3.488V7.68H11.52q-.64 0-1.088.416t-.416 1.056v3.52z"/></symbol><symbol viewBox="0 0 30 30" id="fb" xmlns="http://www.w3.org/2000/svg"><defs><style>.dcls-1{fill:#999;fill-rule:evenodd}</style></defs><path id="dfb" class="dcls-1" d="M15 0a15 15 0 1 0 15 15A15.005 15.005 0 0 0 15 0zm3.55 10.37H16.3a.755.755 0 0 0-.57.82v1.62h2.82v2.32h-2.82v6.98h-2.66v-6.98h-2.41v-2.32h2.41v-1.36a3.355 3.355 0 0 1 3.23-3.56h2.25v2.48z"/></symbol><symbol viewBox="0 0 35.2 33" id="house-sketch" xmlns="http://www.w3.org/2000/svg"><path d="M11.4 28.2h19.4c.3 0 .5-.2.5-.5s-.2-.5-.5-.5H11.4c-.3 0-.5.2-.5.5s0 .5.3.5zm0-17.3H13c.4 0 .6-.4.6-.7s-.2-.5-.5-.5h-1.5c-.3 0-.5 0-.5.4 0 .3 0 .5.4.5zm0 4H13c.4 0 .6 0 .6-.4s-.2-.5-.5-.5h-1.5c-.3 0-.5.3-.5.6s0 .5.4.5zm0 4.4H13c.4 0 .6-.2.6-.5s-.2-.6-.5-.6h-1.5c-.3 0-.5.2-.5.5s0 .4.4.4zm0 4.4H13c.4 0 .6-.3.6-.6s-.2-.5-.5-.5h-1.5c-.3 0-.5 0-.5.4 0 .3 0 .6.4.6zm6 0h11c.4 0 1-.5 1-1v-8.2h.5s.3-.2.4-.5c0-.2 0-.5-.3-.7l-7-4.8c0-.2-.4-.2-.7 0l-7 5c-.2 0-.3.4-.3.6.2.4.4.6.7.6h.6v8c.3.6.7 1 1.2 1zm6.8-1.2h-2.5v-4.4h2.5v4.4zm4 0h-3v-4.4c0-.5-.3-1-.8-1h-2.7c-.5 0-1 .5-1 1v4.4h-3v-8h10.7v8zM23 9.8l5.7 4H17l6-4z"/><path d="M34.7 8.4c.3 0 .5-.2.5-.5V6c0-1-.8-2-2-2h-25c0-2.2-2-4-4-4S0 2 0 4v16.2c0 .3.2.5.5.5s.5-.2.5-.5v-16C1 2.2 2.4 1 4 1s3.2 1.4 3.2 3v22.2L7 26c-.8-.7-1.7-1-2.7-1H3c-1 0-1.6.5-2.2 1.2v-4c0-.2-.2-.4-.5-.4s-.5.2-.5.5V29c0 1 .4 2 1 2.7 1 1 2 1.3 3 1.3h29.4c1 0 2-.8 2-2V10c0-.3-.3-.5-.6-.5s-.5.2-.5.5v21c0 .6-.3 1-.7 1H4c-.7 0-1.5-.4-2-1-.7-.6-1-1.3-1-2.2v-1c.3-1 1-1.5 1.8-2h1.7C6 26 7 27.2 7 28.6v.3h1V5.2h25.3c.6 0 1 .4 1 .8v2c.2 0 .4.5.7.5z"/></symbol><symbol viewBox="0 0 17.6 30" id="left-arrow" xmlns="http://www.w3.org/2000/svg"><path d="M6 15L17 3.8c.4-.3.6-.7.6-1.2s-.2-1-.5-1.2l-1-1c0-.2-.6-.4-1-.4s-1 .2-1.2.5L.5 13.8c-.3.3-.5.8-.5 1.2 0 .4.2 1 .5 1.2L14 29.6c.2.3.6.5 1 .5.5 0 1 0 1.3-.4l1-1c.6-.6.6-1.7 0-2.3L6 15z"/></symbol><symbol viewBox="0 0 13 30" id="left-chevron" xmlns="http://www.w3.org/2000/svg"><path d="M13 1.3L11.2 0 0 15l11.2 15 1.8-1.3L2.8 15"/></symbol><symbol viewBox="0 0 30 30" id="linkedin" xmlns="http://www.w3.org/2000/svg"><defs><style>.hcls-1{fill:#999;fill-rule:evenodd}</style></defs><path id="hlinkedin" class="hcls-1" d="M15 0a15 15 0 1 0 15 15A15.005 15.005 0 0 0 15 0zm-3.67 21.22H8.29v-9.78h3.04v9.78zM9.79 10.24a1.52 1.52 0 1 1 1.64-1.52 1.515 1.515 0 0 1-1.64 1.52zm12.63 10.98h-3.04V15.8c0-1.26-.44-2.12-1.54-2.12a1.656 1.656 0 0 0-1.55 1.14 2.176 2.176 0 0 0-.11.76v5.64h-3.03v-6.66c0-1.22-.04-2.24-.08-3.12h2.64l.14 1.36h.06a3.492 3.492 0 0 1 3.01-1.58c2 0 3.5 1.34 3.5 4.22v5.78z"/></symbol><symbol viewBox="0 0 24.5 33" id="paint-brush" xmlns="http://www.w3.org/2000/svg"><path d="M24 15.4V0h-4.5l-.8 1V0H.5v15.4H0V19l8.5 3.7v6.6c0 2 1.7 3.7 3.7 3.7s3.7-1.7 3.7-3.7v-6.6l8.4-3.7v-3.5H24zM8 1h2v1.2c0 .6-.4 1-1 1s-1-.5-1-1V1zM4.8 1h2v3.3c0 .6-.4 1-1 1s-1-.5-1-1V1zM1.6 1h2v3.3c0 1.2 1 2 2.2 2s2.2-1 2.2-2V4c.3.2.7.3 1 .3 1.3 0 2.2-1 2.2-2V1h6.4v3.3L20 1h3v11.3H1.5V1zm0 12.3H23v2H1.5v-2zM15 22v7.3c0 1.5-1.3 2.7-2.8 2.7-1.5 0-2.7-1.2-2.7-2.7V22L1 18.3v-1.8h22.3v1.8L15 22z"/><path d="M12.2 27.7c-1 0-1.6.7-1.6 1.6s.7 1.6 1.6 1.6c1 0 1.6-.8 1.6-1.7s-.7-1.6-1.6-1.6zm0 2c-.3 0-.5 0-.5-.4 0-.3.2-.5.5-.5s.5.2.5.5-.2.5-.5.5z"/></symbol><symbol id="quotes" viewBox="0 0 33 22.7" xmlns="http://www.w3.org/2000/svg"><style>.jst0{fill:#fff}</style><path class="jst0" d="M7.2 8.2c4 0 7.2 3.2 7.2 7.2s-3.2 7.2-7.2 7.2-7.2-3.2-7.2-7v-1C0 6.5 6.5 0 14.4 0v4C11.7 4 9 5.3 7 7c-.3.5-.6 1-1 1.3h1.2zm18.6 0c4 0 7.2 3.2 7.2 7.2s-3.2 7.2-7.2 7.2-7.2-3.2-7.2-7.2v-1C18.6 6.4 25 0 33 0v4c-2.7 0-5.3 1.2-7.3 3l-1 1.3h1z"/></symbol><symbol id="search-symbol" viewBox="0 0 30 30" xmlns="http://www.w3.org/2000/svg"><style>.kst0{fill:#fff}</style><path class="kst0" d="M11.7 0C5.2 0 0 5.2 0 11.7 0 18 5.2 23.4 11.7 23.4c2.5 0 4.8-.8 6.7-2l8.7 8.5h.7l2.3-2.4c.2-.2 0-.4 0-.6l-8.7-8.6c1.3-2 2-4.2 2-6.7C23.4 5.2 18.2 0 11.8 0zm0 20.6c-5 0-9-4-9-9s4-8.8 9-8.8 9 4 9 9-4 8.8-9 8.8z"/></symbol><symbol viewBox="0 0 32 20.4" id="top-arrow" xmlns="http://www.w3.org/2000/svg"><title>left-arrow</title><path d="M16 0l16 16-4.2 4.4L16 8.6 4.2 20.4 0 16 16 0z"/></symbol><symbol viewBox="0 0 30 30" id="twitter" xmlns="http://www.w3.org/2000/svg"><defs><style>.mcls-1{fill:#999;fill-rule:evenodd}</style></defs><path id="mtwitter" class="mcls-1" d="M15 0a15 15 0 1 0 15 15A15.005 15.005 0 0 0 15 0zm6.1 12.29c.01.13.01.25.01.38a8.4 8.4 0 0 1-12.93 7.08 5.374 5.374 0 0 0 .7.04 5.947 5.947 0 0 0 3.67-1.26 2.962 2.962 0 0 1-2.76-2.06 2.505 2.505 0 0 0 .55.06 2.827 2.827 0 0 0 .78-.11 2.95 2.95 0 0 1-2.37-2.89v-.04a3.05 3.05 0 0 0 1.34.37 2.965 2.965 0 0 1-1.31-2.46 2.915 2.915 0 0 1 .4-1.49A8.35 8.35 0 0 0 15.27 13a2.927 2.927 0 0 1-.08-.67 2.95 2.95 0 0 1 5.11-2.02 6.112 6.112 0 0 0 1.88-.72 2.933 2.933 0 0 1-1.3 1.63 6.017 6.017 0 0 0 1.7-.46 6.147 6.147 0 0 1-1.48 1.53z"/></symbol><symbol viewBox="0 0 29.4 33" id="user" xmlns="http://www.w3.org/2000/svg"><path d="M27 25l-3-3h-.7c-.2.3-.2.7 0 1l2 2h-8c-.4 0-.7.2-.7.5s.3.6.6.6h8l-2 2.2v.8l.5.2.4-.2 3-3c.3-.3.3-.6 0-1zm-14.8-9c1.8 0 3.6-1 5-3 1.2-2 2-4 2-6 0-4-3.2-7-7-7s-7 3.2-7 7c0 2 .7 4 2 6 1.4 2 3.2 3 5 3zm0-15c3.2 0 6 2.7 6 6 0 1.6-.8 3.7-2 5.2-1 1.7-2.6 2.6-4 2.6s-3-1-4-2.6C7 10.7 6.3 8.7 6.3 7c0-3.2 2.6-6 5.8-6zm3 29v-.3c-.3-.2-.7-.2-1 0v.8c.3.2.6.2.8 0 .2 0 .3-.3.2-.6z"/><path d="M22 18h-.3c-1-1.3-2.6-2.5-4.3-3.3h-.6c-1.4 1.5-3 2.2-4.6 2.2-1.6 0-3.2-.8-4.6-2.2-.2-.2-.4-.2-.6 0-2 1-3.8 2.4-5 4.3-1.3 2-2 4.4-2 6.7 0 .2.2.3.3.4 3.3 3 7.6 4.7 12 4.7h.8c.4 0 .7-.3.6-.6 0-.2-.3-.5-.6-.4h-.7c-4 0-8-1.5-11-4.2 0-2 .5-4 1.7-5.8 1-1.6 2.5-3 4.2-3.8 1.5 1.4 3.3 2 5 2s3.7-.6 5.2-2c1 .6 2.2 1.4 3 2.3-3.4 1-6 4-6 7.6 0 4 3.4 7.4 7.5 7.4 4 0 7.3-3.3 7.3-7.4 0-4-3.3-7.5-7.4-7.5zm0 14c-3.6 0-6.4-2.8-6.4-6.3s2.8-6.3 6.3-6.3c3.4 0 6.2 2.8 6.2 6.3S25.4 32 22 31.8z"/></symbol></svg>