<?xml version="1.0" encoding="utf-8"?><svg xmlns="http://www.w3.org/2000/svg" xmlns:xlink="http://www.w3.org/1999/xlink"><symbol viewBox="0 0 402 438.5" id="admin" xmlns="http://www.w3.org/2000/svg"><path d="M201 219.3c30.3 0 56-10.7 77.5-32 21.4-21.5 32-47.3 32-77.6 0-30.3-10.6-56-32-77.5S231.3 0 201 0s-56 10.7-77.5 32c-21.4 21.5-32 47.4-32 77.6 0 30.3 10.6 56 32 77.5 21.4 21.6 47.2 32.3 77.5 32.3z"/><path d="M401 335c-.7-9.6-2-20-4-31-2-11.2-4.5-21.6-7.6-31-3-9.6-7-19-12.3-28-5-9-11-16.6-17.6-23-6.7-6.4-14.8-11.5-24.4-15.3-9.6-3.8-20.2-5.7-31.8-5.7-1.7 0-5.7 2-12 6L270 221c-8 5-18.3 9.6-31 13.7-12.6 4-25.3 6-38 6-12.8 0-25.5-2-38-6-12.8-4-23-8.7-31-13.7l-21-14c-6.3-4-10.3-6-12-6-11.6 0-22.2 2-31.8 5.7-9.6 3.8-17.7 9-24.4 15.3C36 228.4 30 236 25 245c-5.2 9-9.3 18.4-12.4 28-3 9.4-5.6 19.7-7.6 31-2 11-3.3 21.4-4 31-.7 9.6-1 19.5-1 29.6 0 22.8 7 41 20.8 54 14 13.3 32.4 20 55.4 20h249.5c23 0 41.5-6.7 55.4-20 14-13 21-31.2 21-54 0-10-.3-20-1-29.6z"/></symbol><symbol viewBox="0 0 34.1 33" id="arrows_down" xmlns="http://www.w3.org/2000/svg"><path d="M16.3 19.6c.2.2.5.3.8.3s.7-.2 1-.4l15.8-16c.2-.2.4-.5.4-.8s-.2-.5-.4-.8L32 .3c0-.2-.4-.3-.7-.3-.3 0-.6 0-.8.3L17 13.8 3.7.3C3.4 0 3 0 2.8 0c-.3 0-.5 0-.8.3L.4 2c-.3.3-.4.5-.4.8 0 .3 0 .6.4.8l16 16z"/><path d="M32 13.5c0-.2-.4-.3-.7-.3-.3 0-.6 0-.8.4L17 27 3.7 13.4c-.2-.2-.5-.4-.8-.4-.3 0-.6.2-.8.5L.3 15.2c-.2.2-.3.4-.3.7 0 .2 0 .5.4.7l16 16s.4.3.7.3.7 0 1-.4l15.8-16c.2 0 .4-.4.4-.7 0-.4 0-.7-.4-1L32 13.6z"/></symbol><symbol id="bar-menu" viewBox="0 0 30 24.4" xmlns="http://www.w3.org/2000/svg"><style>.cst0{fill:#444}</style><path class="cst0" d="M0 0h30v5.6H0V0zm0 9.4h30V15H0V9.4zm0 9.4h30v5.6H0v-5.6z"/></symbol><symbol viewBox="0 0 15 32" id="facebook" xmlns="http://www.w3.org/2000/svg"><title>facebook</title><path d="M10.016 12.672h4.992v4.992h-4.992v11.648H4.992V17.664H0v-4.992h4.992V10.56q0-1.6.512-3.264T6.88 4.704q1.856-2.048 4.64-2.048h3.488V7.68H11.52q-.64 0-1.088.416t-.416 1.056v3.52z"/></symbol><symbol viewBox="0 0 377.5 377.5" id="google" xmlns="http://www.w3.org/2000/svg"><path d="M377.5 167.8H201.3v58.7h107.5c-16 51-63.7 88-120 88-69.6 0-126-56.2-126-125.7S119.3 63 189 63c35 0 66.5 14.3 89.4 37.3L320.8 54c-34-33.4-80.6-54-132-54C84.4 0 0 84.5 0 188.7s84.5 188.7 188.7 188.7c91.3 0 171.2-64.8 188.7-151v-58.6z"/></symbol><symbol viewBox="0 0 491.9 377.5" id="google-plus" xmlns="http://www.w3.org/2000/svg"><path d="M377.5 167.8H201.3v58.7h107.5c-16 51-63.7 88-120 88-69.6 0-126-56.2-126-125.7S119.3 63 189 63c35 0 66.5 14.3 89.4 37.3L320.8 54c-34-33.4-80.6-54-132-54C84.4 0 0 84.5 0 188.7s84.5 188.7 188.7 188.7c91.3 0 171.2-64.8 188.7-151v-58.6zm114.5-.1h-36.2v-36h-31v36h-36v30.8h36v36h31v-36h36"/></symbol><symbol viewBox="0 0 369.5 345.2" id="heart" xmlns="http://www.w3.org/2000/svg"><path d="M184.7 345.2c-3.5 0-6.8-1.4-9.2-4L28 182.2l-.2-.2C9.8 162 0 135.8 0 108c0-28 10-54.3 27.8-74.2l2.2-2.5C48.3 11 72.6 0 98.6 0s50.4 11 68.6 31.3l17.5 19.4 17.5-19.4C220.5 11 245 0 270.8 0s50.4 11 68.6 31.3l2.2 2.5c18 20 27.8 46.2 27.8 74s-10 54.3-27.8 74.2L193.8 341.3c-2.5 2.6-5.8 4-9.3 4zm-138.4-180l138.4 149 138.4-149c28.6-31.7 28.6-83 0-114.6l-2.2-2.5c-13.4-14.8-31-23-50-23-18.8 0-36.6 8.2-50 23L194 77.8c-2.4 2.6-5.7 4-9.3 4s-7-1.4-9.3-4L148.6 48c-13.4-14.8-31-23-50-23s-36.6 8.2-50 23l-2.2 2.6c-28.6 31.5-28.6 83 0 114.5z"/></symbol><symbol viewBox="0 0 13 30" id="left-chevron" xmlns="http://www.w3.org/2000/svg"><path d="M13 1.3L11.2 0 0 15l11.2 15 1.8-1.3L2.8 15"/></symbol><symbol viewBox="0 0 438.5 419.1" id="linkedin-letters" xmlns="http://www.w3.org/2000/svg"><path d="M5.4 136.2h94.2v283H5.4zM408.8 162c-19.8-21.6-46-32.4-78.5-32.4-12 0-23 1.5-32.7 4.4-9.8 3-18 7-24.8 12.4-6.8 5.3-12 10.3-16 14.8-4 4.3-7.6 9.4-11.2 15v-40h-94l.4 13.6c.2 9 .3 37.3.3 84.5S152 343 151.7 419h94V261.2c0-9.7 1-17.4 3-23 4-9.8 10-18 18-24.5 8.2-6.6 18.2-10 30.2-10 16.3 0 28.3 5.8 36 17 7.7 11.4 11.6 27 11.6 47v151.4h94V257c0-41.7-10-73.4-29.8-95zM53 0C37.4 0 24.6 4.6 14.8 13.8 5 23 0 34.8 0 48.8s4.8 25.5 14.3 34.8c9.5 9.3 22 14 37.7 14h.6c16 0 29-4.7 38.7-14 9.8-9.3 14.6-21 14.4-34.8-.2-14-5-25.7-14.6-35C81.7 4.6 69 0 53 0z"/></symbol><symbol id="quotes" viewBox="0 0 33 22.7" xmlns="http://www.w3.org/2000/svg"><style>.jst0{fill:#fff}</style><path class="jst0" d="M7.2 8.2c4 0 7.2 3.2 7.2 7.2s-3.2 7.2-7.2 7.2-7.2-3.2-7.2-7v-1C0 6.5 6.5 0 14.4 0v4C11.7 4 9 5.3 7 7c-.3.5-.6 1-1 1.3h1.2zm18.6 0c4 0 7.2 3.2 7.2 7.2s-3.2 7.2-7.2 7.2-7.2-3.2-7.2-7.2v-1C18.6 6.4 25 0 33 0v4c-2.7 0-5.3 1.2-7.3 3l-1 1.3h1z"/></symbol><symbol id="search-symbol" viewBox="0 0 30 30" xmlns="http://www.w3.org/2000/svg"><style>.kst0{fill:#fff}</style><path class="kst0" d="M11.7 0C5.2 0 0 5.2 0 11.7 0 18 5.2 23.4 11.7 23.4c2.5 0 4.8-.8 6.7-2l8.7 8.5h.7l2.3-2.4c.2-.2 0-.4 0-.6l-8.7-8.6c1.3-2 2-4.2 2-6.7C23.4 5.2 18.2 0 11.8 0zm0 20.6c-5 0-9-4-9-9s4-8.8 9-8.8 9 4 9 9-4 8.8-9 8.8z"/></symbol><symbol id="shopping-cart" viewBox="0 0 366.3 365.8" xmlns="http://www.w3.org/2000/svg"><style>.lst0{fill:#010002}.lst1{fill:none;stroke:#000;stroke-width:15;stroke-miterlimit:10}</style><path class="lst0" d="M160.3 292.7c-20.2 0-36.6 16.4-36.6 36.6 0 20.2 16.4 36.6 36.6 36.6s36.6-16.5 36.6-36.7c0-20.2-16.5-36.6-36.7-36.6zm0 57c-10.6-3.7-20.3-9.2-20.3-20.4s9-20.3 20.3-20.3 20.3 9 20.3 20.3c1.3 13.4-6.5 25-20.3 20.3zm114.7-57c-20.2 0-36.6 16.4-36.6 36.6 0 20.2 16.4 36.6 36.6 36.6 20.2 0 36.6-16.5 36.6-36.7 0-20.2-16.5-36.6-36.6-36.6zm0 57c-11.2 0-20.3-9.2-20.3-20.4s9-20.3 20.3-20.3c11.2 0 20.3 9 20.3 20.3 0 11.2-9 20.3-20.3 20.3zm89.6-257.1c-1.5-2-4-3-6.4-3h-275L60.8 6l-.2-.5-.8-1.5c-.3-.4-.5-1-1-1.3-.2-.4-.6-.7-1-1l-1.3-1c-.4 0-1 0-1.4-.3-.5-.2-1-.3-1.6-.3H8C3.7 0 0 3.6 0 8s3.6 8.2 8 8.2h38.6l22.6 83.3L109.8 264c1 3.7 4.2 6.3 8 6.3h199.7c3.7 0 7-2.5 8-6.2L366 99.5c.7-2.3 0-5-1.4-6.8zM311.2 254h-187L87.5 105.8h260.3L311.2 254z"/><path class="lst1" d="M253 133v100m-69.8-100v100"/></symbol><symbol viewBox="0 0 32 20.4" id="top-arrow" xmlns="http://www.w3.org/2000/svg"><title>left-arrow</title><path d="M16 0l16 16-4.2 4.4L16 8.6 4.2 20.4 0 16 16 0z"/></symbol><symbol id="twitter" viewBox="0 0 612 497.1" xmlns="http://www.w3.org/2000/svg"><style>.nst0{fill:#010002}</style><path class="nst0" d="M612 58.8c-22.5 10-46.7 16.7-72 19.8 25.8-15.5 45.7-40.2 55-69.4-24 14.4-51 24.8-79.6 30.5C492.3 15.2 459.8 0 423.7 0 354.4 0 298 56.2 298 125.5c0 9.8 1.2 19.4 3.4 28.6C197 149 104.6 99 42.6 23c-10.8 18.5-17 40-17 63 0 43.6 22.3 82 56 104.5-20.7-.7-40-6.3-57-15.8v1.6c0 60.8 43.3 111.6 100.7 123-10.5 3-21.6 4.5-33 4.5-8.2 0-16-.8-23.7-2.3 16 50 62.3 86.2 117.3 87.2-43 33.7-97.2 53.7-156 53.7-10 0-20-.6-30-1.7 55.7 35.7 121.6 56.5 192.5 56.5 231 0 357.2-191.3 357.2-357.2l-.4-16.3c24.6-17.6 46-39.7 62.7-65z"/></symbol><symbol viewBox="0 0 80.8 47.9" id="view" xmlns="http://www.w3.org/2000/svg"><path d="M79.4 22c-.8-.8-17.6-22-39-22S2 21.2 1.4 22L0 24l1.4 1.8c.7 1 17.5 22 39 22 21.4 0 38.2-21 39-22l1.4-1.8-1.4-2zm-39 20c-15 0-28.2-13-32.6-18 4.4-5 17.5-18 32.6-18 15 0 28.2 13 32.6 18-4.4 5-17.5 18-32.6 18z"/><path d="M40.4 7.6C31.4 7.6 24 15 24 24c0 9 7.4 16.4 16.4 16.4S56.8 33 56.8 24c0-9-7.4-16.4-16.4-16.4zm0 26.8C34.7 34.4 30 29.7 30 24s4.7-10.4 10.4-10.4S50.8 18.3 50.8 24 46 34.4 40.4 34.4z"/></symbol><symbol id="youtube" viewBox="0 0 543.9 516.4" xmlns="http://www.w3.org/2000/svg"><style>.pst0{fill:#010002}</style><path class="pst0" d="M91.7 0h40.8l5.2 21 4.4 15.5 3.7 15.2 3.6 15.8 2.8 13.3h1.7l2.8-13.3 3.2-15.8 4-15.2 4-15.5 5.7-21H213l-42 126v89.5h-37.6V126L91.7 0zm172 53c32 0 48 15.2 48 45.2v74.3c0 30-16 45.2-48 45.2s-48-15.2-48-45.2V98.2c0-30 16-45.2 48-45.2zm0 25.8c-8.5 0-13 5.2-13 15V177c0 9.4 5 15 13 15s13-5.6 13-15V93.7c0-9.7-5-15-13-15zM412 215.5l-3-14c-14.4 12-23 16.3-33 16.3-8.5 0-17.4-4-21.4-9-4.4-5.6-5.7-11.4-5.7-28V55h35v125c0 8.2 2.8 12 9.3 12 4.4 0 8.5-1.5 15.8-6.4V55h35.2v160.5H412zM94.6 244.8C42.4 244.8 0 287 0 339.4V422c0 52 42.4 94.4 94.6 94.4h354.7c52.2 0 94.6-42.3 94.6-94.5v-82.6c0-52.2-42.5-94.6-94.7-94.6H94.6zM51 281.2h99.4v25.5H117V477H83V306.8H51v-25.5zm226.5 0h32V345c12.4-11.3 20.8-15.7 30.4-15.7 7.2 0 15.3 3.5 19 8.2 4 5.3 5.2 10.6 5.2 26.2v81c0 15.3-1 20.5-5.2 25.8-3.7 5-11.7 8.5-19.4 8.5-9.6 0-17.7-4.4-30.2-15.8V477h-32V281.2zm164.5 48c26.4 0 43 14 43 36.5v43h-55.5v32c0 10.5 3.3 15 11.7 15 4 0 7.7-2 9.5-4.5 1.8-2.6 2.3-5.8 2.3-16.4V426h32v5.3c.3 3.8.3 6.5.3 8 0 25.7-15.8 39.8-44.8 39.8-27.5 0-43-14.5-43-41v-68c0-27.5 14.7-40.7 44.5-40.7zm-285.7 2h32v113.6c0 7.3 2.5 10.8 8.4 10.8 4 0 7.7-1.4 14.3-5.8V331h32v146h-29.4l-2.6-12.6c-13.2 11-21 14.7-30 14.7-7.8 0-16-3.4-19.6-8-4-5-5.2-10.4-5.2-25.4V331zm167.4 21.6c-4 0-7.7 1.5-14.3 6v91c6.6 4.3 10.3 5.7 14.3 5.7 6 0 8.5-3.5 8.5-10.8v-81c0-7.6-2.6-11-8.5-11zm117.5 0c-7.3 0-11.7 3.8-11.7 10.6V388H453v-24.7c0-6.7-4.5-10.5-11.8-10.5z"/></symbol></svg>