<svg xmlns="http://www.w3.org/2000/svg" viewBox="0 0 402 438.5"><path d="M201 219.3c30.3 0 56-10.7 77.5-32 21.4-21.5 32-47.3 32-77.6 0-30.3-10.6-56-32-77.5S231.3 0 201 0s-56 10.7-77.5 32c-21.4 21.5-32 47.4-32 77.6 0 30.3 10.6 56 32 77.5 21.4 21.6 47.2 32.3 77.5 32.3z"/><path d="M401 335c-.7-9.6-2-20-4-31-2-11.2-4.5-21.6-7.6-31-3-9.6-7-19-12.3-28-5-9-11-16.6-17.6-23-6.7-6.4-14.8-11.5-24.4-15.3-9.6-3.8-20.2-5.7-31.8-5.7-1.7 0-5.7 2-12 6L270 221c-8 5-18.3 9.6-31 13.7-12.6 4-25.3 6-38 6-12.8 0-25.5-2-38-6-12.8-4-23-8.7-31-13.7L111 207c-6.3-4-10.3-6-12-6-11.6 0-22.2 2-31.8 5.7-9.6 3.8-17.7 9-24.4 15.3C36 228.4 30 236 25 245c-5.2 9-9.3 18.4-12.4 28-3 9.4-5.6 19.7-7.6 31-2 11-3.3 21.4-4 31-.7 9.6-1 19.5-1 29.6 0 22.8 7 41 20.8 54 14 13.3 32.4 20 55.4 20h249.5c23 0 41.5-6.7 55.4-20 14-13 21-31.2 21-54 0-10-.3-20-1-29.6z"/></svg>