<svg xmlns="http://www.w3.org/2000/svg" viewBox="0 0 369.5 345.2"><path d="M184.7 345.2c-3.5 0-6.8-1.4-9.2-4L28 182.2l-.2-.2C9.8 162 0 135.8 0 108c0-28 10-54.3 27.8-74.2l2.2-2.5C48.3 11 72.6 0 98.6 0s50.4 11 68.6 31.3l17.5 19.4 17.5-19.4C220.5 11 245 0 270.8 0s50.4 11 68.6 31.3l2.2 2.5c18 20 27.8 46.2 27.8 74s-10 54.3-27.8 74.2L193.8 341.3c-2.5 2.6-5.8 4-9.3 4zm-138.4-180l138.4 149 138.4-149c28.6-31.7 28.6-83 0-114.6l-2.2-2.5c-13.4-14.8-31-23-50-23-18.8 0-36.6 8.2-50 23L194 77.8c-2.4 2.6-5.7 4-9.3 4s-7-1.4-9.3-4L148.6 48c-13.4-14.8-31-23-50-23s-36.6 8.2-50 23l-2.2 2.6c-28.6 31.5-28.6 83 0 114.5z"/></svg>