<svg xmlns="http://www.w3.org/2000/svg" viewBox="0 0 35.2 33"><path d="M11.4 28.2h19.4c.3 0 .5-.2.5-.5s-.2-.5-.5-.5H11.4c-.3 0-.5.2-.5.5s0 .5.3.5zm0-17.3H13c.4 0 .6-.4.6-.7s-.2-.5-.5-.5h-1.5c-.3 0-.5 0-.5.4 0 .3 0 .5.4.5zm0 4H13c.4 0 .6 0 .6-.4s-.2-.5-.5-.5h-1.5c-.3 0-.5.3-.5.6s0 .5.4.5zm0 4.4H13c.4 0 .6-.2.6-.5s-.2-.6-.5-.6h-1.5c-.3 0-.5.2-.5.5s0 .4.4.4zm0 4.4H13c.4 0 .6-.3.6-.6s-.2-.5-.5-.5h-1.5c-.3 0-.5 0-.5.4 0 .3 0 .6.4.6zm6 0h11c.4 0 1-.5 1-1v-8.2h.5s.3-.2.4-.5c0-.2 0-.5-.3-.7l-7-4.8c0-.2-.4-.2-.7 0l-7 5c-.2 0-.3.4-.3.6.2.4.4.6.7.6h.6v8c.3.6.7 1 1.2 1zm6.8-1.2h-2.5v-4.4h2.5v4.4zm4 0h-3v-4.4c0-.5-.3-1-.8-1h-2.7c-.5 0-1 .5-1 1v4.4h-3v-8h10.7v8zM23 9.8l5.7 4H17l6-4z"/><path d="M34.7 8.4c.3 0 .5-.2.5-.5V6c0-1-.8-2-2-2h-25c0-2.2-2-4-4-4S0 2 0 4v16.2c0 .3.2.5.5.5s.5-.2.5-.5v-16C1 2.2 2.4 1 4 1s3.2 1.4 3.2 3v22.2L7 26c-.8-.7-1.7-1-2.7-1H3c-1 0-1.6.5-2.2 1.2v-4c0-.2-.2-.4-.5-.4s-.5.2-.5.5V29c0 1 .4 2 1 2.7 1 1 2 1.3 3 1.3h29.4c1 0 2-.8 2-2V10c0-.3-.3-.5-.6-.5s-.5.2-.5.5v21c0 .6-.3 1-.7 1H4c-.7 0-1.5-.4-2-1-.7-.6-1-1.3-1-2.2v-1c.3-1 1-1.5 1.8-2h1.7C6 26 7 27.2 7 28.6v.3h1V5.2h25.3c.6 0 1 .4 1 .8v2c.2 0 .4.5.7.5z"/></svg>