<?xml version="1.0" encoding="utf-8"?>
<!-- Generator: Adobe Illustrator 21.1.0, SVG Export Plug-In . SVG Version: 6.00 Build 0)  -->
<svg version="1.1" id="Слой_1" xmlns="http://www.w3.org/2000/svg" xmlns:xlink="http://www.w3.org/1999/xlink" x="0px" y="0px"
	 viewBox="0 0 31 31" style="enable-background:new 0 0 31 31;" xml:space="preserve">
<style type="text/css">
	.st0{fill:#48689A;}
</style>
<path id="House" class="st0" d="M27.3,31H3.7V18.2h2V29h19.7V18.2h2V31H27.3z M29.6,18l-14-15L1.3,18L0,16.4L15.5,0L31,16.5
	C31,16.5,29.6,18,29.6,18z M19.4,27h-2v-6.8h-4v7h-2v-9h8v9V27z M15.4,16.2c-2,0-3.8-1.8-3.8-4s1.8-3.8,4-3.8s3.8,1.8,3.8,4
	C19.4,14.4,17.7,16.2,15.4,16.2z M15.4,10.2c-1,0-2,1-2,2s1,2,2,2s2-0.8,2-2S16.6,10.2,15.4,10.2z"/>
</svg>
