<svg xmlns="http://www.w3.org/2000/svg" viewBox="0 0 438.5 419.1"><path d="M5.4 136.2h94.2v283H5.4zM408.8 162c-19.8-21.6-46-32.4-78.5-32.4-12 0-23 1.5-32.7 4.4-9.8 3-18 7-24.8 12.4-6.8 5.3-12 10.3-16 14.8-4 4.3-7.6 9.4-11.2 15v-40h-94l.4 13.6c.2 9 .3 37.3.3 84.5S152 343 151.7 419h94V261.2c0-9.7 1-17.4 3-23 4-9.8 10-18 18-24.5 8.2-6.6 18.2-10 30.2-10 16.3 0 28.3 5.8 36 17 7.7 11.4 11.6 27 11.6 47v151.4h94V257c0-41.7-10-73.4-29.8-95zM53 0C37.4 0 24.6 4.6 14.8 13.8 5 23 0 34.8 0 48.8s4.8 25.5 14.3 34.8c9.5 9.3 22 14 37.7 14h.6c16 0 29-4.7 38.7-14 9.8-9.3 14.6-21 14.4-34.8-.2-14-5-25.7-14.6-35C81.7 4.6 69 0 53 0z"/></svg>