<svg xmlns="http://www.w3.org/2000/svg" viewBox="0 0 511.6 402"><path d="M498.2 13.4C489.2 4.4 478.5 0 466 0H45.6C33 0 22.4 4.5 13.4 13.4 4.4 22.4 0 33 0 45.7v310.6c0 12.6 4.5 23.3 13.4 32.3 9 9 19.7 13.4 32.3 13.4H466c12.6 0 23.3-4.5 32.3-13.4 9-9 13.4-19.7 13.4-32.3V45.7c0-12.6-4.5-23.3-13.5-32.3zm-23 343c0 2.4-1 4.5-2.8 6.3-1.8 1.8-4 2.7-6.4 2.7H45.7c-2.5 0-4.6-1-6.4-2.7-1.8-1.8-2.7-4-2.7-6.4V137c6 7 12.7 13 19.7 18.8 51 39.2 91.6 71.4 121.6 96.5 9.6 8.2 17.5 14.6 23.6 19 6 4.7 14.3 9.3 24.7 14 10.4 4.6 20 7 29.3 7h.5c9 0 19-2.4 29.3-7 10.4-4.8 18.6-9.4 24.7-14 6-4.5 14-10.8 23.7-19 30-25 70.5-57.3 121.5-96.5 7-5.7 13.6-12 19.7-18.8v219.3zM475 53v3.2c0 11.2-4.5 23.7-13.4 37.5-9 13.8-18.4 24.8-28.7 33-36.6 29-74.8 59-114.4 90.5-1 1-4.5 3.8-10 8.4-5.5 4.7-10 8.2-13 10.7-3.3 2.5-7.6 5.5-12.8 9-5.2 3.5-10 6-14.4 8-4.4 1.6-8.5 2.5-12.3 2.5h-.5c-3.8 0-8-1-12.3-2.6-4.4-1.7-9.2-4.3-14.4-8-5.2-3.4-9.5-6.4-12.7-9l-13-10.6-10-8.4-114.5-90.5c-28-22-42-49-42-81 0-2.6 1-4.7 2.7-6.5 1.8-1.8 4-2.7 6.4-2.7H466c1.4 1 2.8 1 4 .7 1-.4 2 .3 2.5 2 .6 2 1 2.8 1.6 2.7.6-.2 1 1 1 3.5v7.7z"/></svg>