<svg xmlns="http://www.w3.org/2000/svg" viewBox="0 0 24.5 33"><path d="M24 15.4V0h-4.5l-.8 1V0H.5v15.4H0V19l8.5 3.7v6.6c0 2 1.7 3.7 3.7 3.7s3.7-1.7 3.7-3.7v-6.6l8.4-3.7v-3.5H24zM8 1h2v1.2c0 .6-.4 1-1 1s-1-.5-1-1V1zM4.8 1h2v3.3c0 .6-.4 1-1 1s-1-.5-1-1V1zM1.6 1h2v3.3c0 1.2 1 2 2.2 2s2.2-1 2.2-2V4c.3.2.7.3 1 .3 1.3 0 2.2-1 2.2-2V1h6.4v3.3L20 1h3v11.3H1.5V1zm0 12.3H23v2H1.5v-2zM15 22v7.3c0 1.5-1.3 2.7-2.8 2.7-1.5 0-2.7-1.2-2.7-2.7V22L1 18.3v-1.8h22.3v1.8L15 22z"/><path d="M12.2 27.7c-1 0-1.6.7-1.6 1.6s.7 1.6 1.6 1.6c1 0 1.6-.8 1.6-1.7s-.7-1.6-1.6-1.6zm0 2c-.3 0-.5 0-.5-.4 0-.3.2-.5.5-.5s.5.2.5.5-.2.5-.5.5z"/></svg>