<svg xmlns="http://www.w3.org/2000/svg" viewBox="0 0 475 453.1"><path d="M474.5 172.3c-1.7-5.2-7-8.5-15.4-10L316 141.7l-64.3-130c-4-7.7-8.7-11.6-14-11.6-5.5 0-10.2 4-14 11.7l-64.2 130L16 162.3c-8.6 1.3-13.7 4.6-15.4 10-1.7 5 .5 10.8 6.6 17l104 101L86.4 433c-1 6.4-.4 11.3 1.7 14.8 2 3.5 5.3 5.3 9.7 5.3 3 0 7-1 11.3-3.3l128.2-67.4 128.2 67.4C370 452 374 453 377 453c4.5 0 7.7-1.7 9.8-5.2 2-3.5 2.7-8.4 1.7-14.7L364 290.5l103.6-101c6.3-6.2 8.6-12 7-17zm-136 91.8l-14 13.5 3.5 18.8 17 101.4-90.7-48-16.8-9V66l45.4 92 8.5 17 19 3L412 192.6 338.6 264z"/></svg>