<svg xmlns="http://www.w3.org/2000/svg" width="30" height="30" viewBox="0 0 30 30"><defs><style>.cls-1 { fill: #999; fill-rule: evenodd; }</style></defs><path id="twitter" class="cls-1" d="M15 0a15 15 0 1 0 15 15A15.005 15.005 0 0 0 15 0zm6.1 12.29c.01.13.01.25.01.38a8.4 8.4 0 0 1-12.93 7.08 5.374 5.374 0 0 0 .7.04 5.947 5.947 0 0 0 3.67-1.26 2.962 2.962 0 0 1-2.76-2.06 2.505 2.505 0 0 0 .55.06 2.827 2.827 0 0 0 .78-.11 2.95 2.95 0 0 1-2.37-2.89v-.04a3.05 3.05 0 0 0 1.34.37 2.965 2.965 0 0 1-1.31-2.46 2.915 2.915 0 0 1 .4-1.49A8.35 8.35 0 0 0 15.27 13a2.927 2.927 0 0 1-.08-.67 2.95 2.95 0 0 1 5.11-2.02 6.112 6.112 0 0 0 1.88-.72 2.933 2.933 0 0 1-1.3 1.63 6.017 6.017 0 0 0 1.7-.46 6.147 6.147 0 0 1-1.48 1.53z"/></svg>