<svg id="Capa_1" xmlns="http://www.w3.org/2000/svg" viewBox="0 0 612 497.1"><style>.st0{fill:#010002;}</style><path class="st0" d="M612 58.8c-22.5 10-46.7 16.7-72 19.8 25.8-15.5 45.7-40.2 55-69.4C571 23.6 544 34 515.4 39.7 492.3 15.2 459.8 0 423.7 0 354.4 0 298 56.2 298 125.5c0 9.8 1.2 19.4 3.4 28.6C197 149 104.6 99 42.6 23c-10.8 18.5-17 40-17 63 0 43.6 22.3 82 56 104.5-20.7-.7-40-6.3-57-15.8v1.6c0 60.8 43.3 111.6 100.7 123-10.5 3-21.6 4.5-33 4.5-8.2 0-16-.8-23.7-2.3 16 50 62.3 86.2 117.3 87.2-43 33.7-97.2 53.7-156 53.7-10 0-20-.6-30-1.7 55.7 35.7 121.6 56.5 192.5 56.5 231 0 357.2-191.3 357.2-357.2l-.4-16.3c24.6-17.6 46-39.7 62.7-65z"/></svg>