<svg xmlns="http://www.w3.org/2000/svg" viewBox="0 0 29.4 33"><path d="M27 25l-3-3h-.7c-.2.3-.2.7 0 1l2 2h-8c-.4 0-.7.2-.7.5s.3.6.6.6h8l-2 2.2v.8l.5.2.4-.2 3-3c.3-.3.3-.6 0-1zm-14.8-9c1.8 0 3.6-1 5-3 1.2-2 2-4 2-6 0-4-3.2-7-7-7s-7 3.2-7 7c0 2 .7 4 2 6 1.4 2 3.2 3 5 3zm0-15c3.2 0 6 2.7 6 6 0 1.6-.8 3.7-2 5.2-1 1.7-2.6 2.6-4 2.6s-3-1-4-2.6C7 10.7 6.3 8.7 6.3 7c0-3.2 2.6-6 5.8-6zm3 29v-.3c-.3-.2-.7-.2-1 0v.8c.3.2.6.2.8 0 .2 0 .3-.3.2-.6z"/><path d="M22 18h-.3c-1-1.3-2.6-2.5-4.3-3.3h-.6c-1.4 1.5-3 2.2-4.6 2.2-1.6 0-3.2-.8-4.6-2.2-.2-.2-.4-.2-.6 0-2 1-3.8 2.4-5 4.3-1.3 2-2 4.4-2 6.7 0 .2.2.3.3.4 3.3 3 7.6 4.7 12 4.7h.8c.4 0 .7-.3.6-.6 0-.2-.3-.5-.6-.4h-.7c-4 0-8-1.5-11-4.2 0-2 .5-4 1.7-5.8 1-1.6 2.5-3 4.2-3.8 1.5 1.4 3.3 2 5 2s3.7-.6 5.2-2c1 .6 2.2 1.4 3 2.3-3.4 1-6 4-6 7.6 0 4 3.4 7.4 7.5 7.4 4 0 7.3-3.3 7.3-7.4 0-4-3.3-7.5-7.4-7.5zM22 32c-3.6 0-6.4-2.8-6.4-6.3s2.8-6.3 6.3-6.3c3.4 0 6.2 2.8 6.2 6.3S25.4 32 22 31.8z"/></svg>