<svg id="Capa_1" xmlns="http://www.w3.org/2000/svg" viewBox="0 0 543.9 516.4"><style>.st0{fill:#010002;}</style><path class="st0" d="M91.7 0h40.8l5.2 21 4.4 15.5 3.7 15.2 3.6 15.8 2.8 13.3h1.7l2.8-13.3 3.2-15.8 4-15.2 4-15.5 5.7-21H213l-42 126v89.5h-37.6V126L91.7 0zM263.7 53c32 0 48 15.2 48 45.2v74.3c0 30-16 45.2-48 45.2s-48-15.2-48-45.2V98.2c0-30 16-45.2 48-45.2zm0 25.8c-8.5 0-13 5.2-13 15V177c0 9.4 5 15 13 15s13-5.6 13-15V93.7c0-9.7-5-15-13-15zM412 215.5l-3-14c-14.4 12-23 16.3-33 16.3-8.5 0-17.4-4-21.4-9-4.4-5.6-5.7-11.4-5.7-28V55h35v125c0 8.2 2.8 12 9.3 12 4.4 0 8.5-1.5 15.8-6.4V55h35.2v160.5H412zM94.6 244.8C42.4 244.8 0 287 0 339.4V422c0 52 42.4 94.4 94.6 94.4h354.7c52.2 0 94.6-42.3 94.6-94.5v-82.6c0-52.2-42.5-94.6-94.7-94.6H94.6zM51 281.2h99.4v25.5H117V477H83V306.8H51v-25.5zm226.5 0h32V345c12.4-11.3 20.8-15.7 30.4-15.7 7.2 0 15.3 3.5 19 8.2 4 5.3 5.2 10.6 5.2 26.2v81c0 15.3-1 20.5-5.2 25.8-3.7 5-11.7 8.5-19.4 8.5-9.6 0-17.7-4.4-30.2-15.8V477h-32V281.2zm164.5 48c26.4 0 43 14 43 36.5v43h-55.5v32c0 10.5 3.3 15 11.7 15 4 0 7.7-2 9.5-4.5 1.8-2.6 2.3-5.8 2.3-16.4V426h32v5.3c.3 3.8.3 6.5.3 8 0 25.7-15.8 39.8-44.8 39.8-27.5 0-43-14.5-43-41v-68c0-27.5 14.7-40.7 44.5-40.7zm-285.7 2h32v113.6c0 7.3 2.5 10.8 8.4 10.8 4 0 7.7-1.4 14.3-5.8V331h32v146h-29.4l-2.6-12.6c-13.2 11-21 14.7-30 14.7-7.8 0-16-3.4-19.6-8-4-5-5.2-10.4-5.2-25.4V331zm167.4 21.6c-4 0-7.7 1.5-14.3 6v91c6.6 4.3 10.3 5.7 14.3 5.7 6 0 8.5-3.5 8.5-10.8v-81c0-7.6-2.6-11-8.5-11zm117.5 0c-7.3 0-11.7 3.8-11.7 10.6V388H453v-24.7c0-6.7-4.5-10.5-11.8-10.5z"/></svg>