<svg xmlns="http://www.w3.org/2000/svg" width="142.6" height="55"><g fill="#898988"><path d="M23.6 20.7c-2.6 0-5.3.5-5.3 3.6 0 1.5.8 2.6 2.2 2.6 1 0 1.9-.6 2.5-1.6.7-1.2.7-2.4.7-3.9v-.7zM103.8 13.9c-2.6 0-2.9 3.6-2.9 5.9s0 7.1 2.8 7.1 2.9-3.9 2.9-6.3c0-1.5-.1-3.4-.5-4.9-.3-1.2-1.1-1.8-2.3-1.8z"/><path d="M137.3 0H5.3A5.3 5.3 0 0 0 0 5.3v44.3c0 3 2.4 5.4 5.3 5.4h131.9c2.9 0 5.3-2.4 5.3-5.3V5.4a5.3 5.3 0 0 0-5.2-5.4zM70.4 14.8c-.5-.7-1.3-.9-2-.9-1.4 0-2.6.7-2.9 2.2-.1.3-.3.6-.6.7l-3.5-.4c-.3-.1-.6-.3-.5-.8.8-4.2 4.6-5.6 8-5.6 1.8 0 4 .5 5.4 1.8 1.8 1.6 1.6 3.9 1.6 6.2v5.6c0 1.7.7 2.4 1.4 3.3.2.3.3.7 0 .9l-2.8 2.4c-.2.2-.6.2-.8.1-1.2-1-1.4-1.5-2.1-2.4-2 2-3.4 2.6-5.9 2.6-3 0-5.4-1.9-5.4-5.6 0-2.9 1.6-4.9 3.9-5.9 1.9-.8 4.7-1 6.8-1.2v-.5c-.1-.8 0-1.8-.6-2.5zm-37.6-3.6c0-.4.3-.7.7-.7h3.3c.4 0 .6.3.6.6v2.4h.1a4.7 4.7 0 0 1 4.7-3.4c2.2 0 3.7 1.1 4.7 3.4a5.1 5.1 0 0 1 5-3.4c1.5 0 3.2.6 4.2 2 1.2 1.5.9 3.8.9 5.8v11.7c0 .4-.3.7-.7.7h-3.6c-.4 0-.6-.3-.6-.7v-9.8c0-.8.1-2.7-.1-3.5-.2-1.2-1.1-1.6-2.1-1.6-.8 0-1.8.6-2.2 1.5-.4.9-.3 2.5-.3 3.6v9.9c0 .4-.3.7-.7.7h-3.6c-.4 0-.6-.3-.6-.7v-9.8c0-2.1.3-5.1-2.2-5.1-2.6 0-2.5 2.9-2.5 5.1v9.8c0 .4-.3.7-.7.7h-3.6a.6.6 0 0 1-.6-.6l-.1-18.6zm-5.5 19.1c-.2.2-.6.2-.8.1-1.2-1-1.4-1.5-2.1-2.4-2 2-3.4 2.6-5.9 2.6-3 0-5.4-1.9-5.4-5.6 0-2.9 1.6-4.9 3.9-5.9 1.9-.8 4.7-1 6.8-1.2v-.5c0-.8.1-1.9-.5-2.6-.5-.7-1.3-.9-2-.9-1.4 0-2.6.7-2.9 2.2-.1.3-.3.6-.6.7l-3.5-.4c-.3-.1-.6-.3-.5-.8.8-4.2 4.6-5.6 8-5.6 1.8 0 4 .5 5.4 1.8 1.8 1.6 1.6 3.9 1.6 6.2v5.6c0 1.7.7 2.4 1.4 3.3.2.3.3.7 0 .9l-2.9 2.5zm58 7.2a45.3 45.3 0 0 1-55.6-4.1c-.6-.5-.1-1.4.7-.9a61.2 61.2 0 0 0 53.9 3.3c1.1-.4 2.1.8 1 1.7zm1.9 4.8c-.5.5-1.1.2-.8-.4.8-2 2.6-6.6 1.8-7.7s-5.7-.5-7.9-.2c-.7.1-.8-.5-.2-.9 3.9-2.7 10.2-1.9 11-1 .7.8-.3 7.2-3.9 10.2zm6.7-13.1c0 .4-.5.8-.8.6a13.8 13.8 0 0 0-12.5 0c-.4.2-.8-.2-.8-.6v-2.7c0-.5 0-1.2.5-1.9l7.1-10.2h-6.2c-.4 0-.7-.2-.7-.7v-2.6c0-.4.3-.7.7-.7H93c.4 0 .7.3.7.7v2.2c0 .4-.3.8-.9 1.7l-6.2 8.8c2.3-.1 4.7.3 6.8 1.5.5.2.6.6.6 1l-.1 2.9zm9.9 1.6c-5.3 0-8.1-4.6-8.1-10.4 0-5.8 2.9-10.3 8.1-10.3 5.3 0 8.3 4.6 8.3 10.4 0 5.8-3.3 10.3-8.3 10.3zm25.7-1.1c-.1.3-.3.6-.7.6h-3.6c-.3 0-.6-.2-.6-.6v-10c0-2 .2-5-2.2-5-.8 0-1.7.6-2.1 1.5-.5 1.2-.5 2.2-.5 3.5v10c0 .4-.3.7-.7.7h-3.6c-.4 0-.6-.3-.6-.7V11.1c0-.3.3-.6.7-.6h3.3c.3 0 .5.2.6.5v2.9h.1c1-2.5 2.4-3.7 4.9-3.7 1.6 0 3.2.6 4.2 2.2.9 1.5.9 3.9.9 5.8l-.1 11.5z"/><path d="M70.9 20.7c-2.6 0-5.3.5-5.3 3.6 0 1.5.8 2.6 2.2 2.6 1 0 1.9-.6 2.5-1.6.7-1.2.7-2.4.7-3.9v-.7z"/></g></svg>