<?xml version="1.0" encoding="utf-8"?>
<!-- Generator: Adobe Illustrator 19.2.1, SVG Export Plug-In . SVG Version: 6.00 Build 0)  -->
<svg version="1.1" id="Layer_1" xmlns="http://www.w3.org/2000/svg" xmlns:xlink="http://www.w3.org/1999/xlink" x="0px" y="0px"
	 width="165.8px" height="55px" viewBox="0 0 165.8 55" style="enable-background:new 0 0 165.8 55;" xml:space="preserve">
<g>
	<path style="fill:#898988;" d="M165.7,13.1c-2.2-12.9-41.2-17-86.9-9c-19.2,3.3-36.5,8.3-50.1,13.8c2.1,0.1,3.6,0.5,4.5,1.5
		c0.8,0.8,1.1,1.7,1.1,3v1.3h-4.5v-1.1c0-0.9-0.6-1.5-1.5-1.5c-0.9,0-1.4,0.3-1.5,1.1c-0.1,0.2-0.1,0.6,0,0.9c0.5,2,7.1,3.2,7.9,6.8
		c0.1,0.4,0.3,1.5,0,2.9c-0.4,2.9-3,4-6.3,4c-4.5,0-6.4-2.1-6.4-5.1v-1.4h4.8v1.7c0,0.9,0.7,1.5,1.7,1.5c0.9,0,1.5-0.3,1.6-1.1
		c0.1-0.3,0.1-0.9,0-1.3c-0.9-2.2-7.1-3.3-7.9-6.9c-0.2-0.8-0.2-1.5-0.1-2.4c0.1-0.5,0.3-0.9,0.4-1.3C7.7,27.6-1,35.3,0.1,41.9
		c2.2,12.9,41.2,17,86.9,9c20.1-3.5,38.2-8.7,52-14.6c-0.2,0-0.4,0-0.6,0c-3.1,0-5.9-1.2-6.2-4.4c-0.1-0.6-0.1-0.9-0.1-1.2v-7.4
		c0-0.3,0-0.9,0.1-1.2c0.3-3.1,2.8-4.4,6.2-4.4c2.7,0,5.8,0.8,6.2,4.4c0.1,0.4,0,0.9,0,1.1l0,0V24h-4.5v-1l0,0c0,0,0-0.4-0.1-0.7
		c-0.1-0.3-0.4-1.2-1.7-1.2s-1.6,0.9-1.7,1.2c-0.1,0.2-0.1,0.5-0.1,0.9v8c0,0.3,0,0.5,0,0.7c0,0.1,0.3,1.2,1.7,1.2
		c1.5,0,1.7-1.1,1.7-1.2c0-0.3,0.1-0.5,0-0.7v-2.5H138V26h6.3v4.7c0,0.3,0,0.6-0.1,1.1c-0.1,0.9-0.3,1.5-0.8,2.1
		C158.3,27.2,166.8,19.6,165.7,13.1z M47.1,36l-2.3-15.6h-0.1L42.4,36h-4.8l3.3-17.6h7.9L52,36H47.1z M70.4,36l-0.2-15.3h-0.1
		L67.3,36h-4.5l-2.8-15.3h-0.1L59.8,36h-4.5l0.3-17.6h7.2l2.1,13h0.1l2.1-13h7.2L74.9,36H70.4z M91.5,32.6c-0.5,3.4-3.9,4-6.2,4
		c-3.9,0-6.3-1.7-6.3-5.1v-1.4h4.7V32c0,0.9,0.7,1.5,1.7,1.5c0.9,0,1.5-0.3,1.6-1.1c0.1-0.3,0.1-0.9,0-1.3c-0.9-2.2-7-3.3-7.8-6.8
		c-0.2-0.8-0.2-1.5,0-2.3c0.5-3.3,3.6-3.9,6.1-3.9c2.2,0,3.9,0.5,4.8,1.5c0.7,0.7,1.1,1.7,1.1,2.9v1.3h-4.5v-1.3
		c0-0.9-0.6-1.5-1.5-1.5c-0.9,0-1.4,0.3-1.5,1.1c0,0.2-0.1,0.5,0,0.9c0.5,2,7.1,3.2,7.8,6.7C91.6,30.2,91.7,31.2,91.5,32.6z M108,31
		c0,0.3,0,1-0.1,1.2c-0.3,2.9-2.3,4.4-6.2,4.4s-5.9-1.5-6.2-4.4c0-0.2-0.1-0.9-0.1-1.1V18.4h4.5v13c0,0.3,0,0.5,0,0.7
		c0.1,0.3,0.3,1.2,1.6,1.2s1.5-0.9,1.6-1.2c0-0.2,0-0.3,0-0.7v-13h4.5C108,18.4,108,31,108,31z M127.5,35.8h-6.3l-4.2-14h-0.1
		l0.3,14h-4.4V18.4h6.6l3.9,13.4h0.1l-0.3-13.4h4.5L127.5,35.8L127.5,35.8z"/>
</g>
</svg>
