<svg xmlns="http://www.w3.org/2000/svg" viewBox="0 0 512 512"><path d="M488.727 66.494H23.273C10.42 66.494 0 76.914 0 89.767v332.466c0 12.853 10.42 23.273 23.273 23.273h465.454c12.853 0 23.273-10.42 23.273-23.273V89.767c0-12.853-10.42-23.273-23.273-23.273z" fill="#5286f9"/><path d="M273.776 189.773c5.115 5.86 9.57 12.31 13.236 19.242a100.2 100.2 0 0 1 11.655 46.986c0 16.96-4.228 32.943-11.655 46.986a101.255 101.255 0 0 1-13.236 19.24A101.619 101.619 0 0 1 256 338.296c16.454 11.664 36.523 18.553 58.182 18.553 55.608 0 100.849-45.241 100.849-100.848S369.79 155.152 314.182 155.152c-21.659 0-41.728 6.886-58.182 18.553a101.836 101.836 0 0 1 17.776 16.068z" fill="#ffb655"/><path d="M287.012 209.016a101.206 101.206 0 0 0-13.236-19.242A101.706 101.706 0 0 0 256 173.708c-16.452-11.667-36.523-18.553-58.182-18.553-55.608 0-100.848 45.241-100.848 100.848s45.241 100.848 100.848 100.848c21.659 0 41.73-6.887 58.182-18.553a101.719 101.719 0 0 0 17.776-16.067c5.115-5.86 9.57-12.31 13.236-19.24a100.212 100.212 0 0 0 11.655-46.986 100.2 100.2 0 0 0-11.655-46.989z" fill="#d8143a"/><path d="M197.818 356.851c-55.608 0-100.848-45.241-100.848-100.848s45.241-100.848 100.848-100.848c21.659 0 41.728 6.886 58.182 18.553V66.494H23.273C10.42 66.494 0 76.914 0 89.767v332.466c0 12.853 10.42 23.273 23.273 23.273H256v-107.21c-16.454 11.666-36.523 18.555-58.182 18.555z" fill="#3d6deb"/></svg>