<?xml version="1.0" encoding="utf-8"?>
<!-- Generator: Adobe Illustrator 21.1.0, SVG Export Plug-In . SVG Version: 6.00 Build 0)  -->
<svg version="1.1" id="Слой_1" xmlns="http://www.w3.org/2000/svg" xmlns:xlink="http://www.w3.org/1999/xlink" x="0px" y="0px"
	 viewBox="0 0 32 26" style="enable-background:new 0 0 32 26;" xml:space="preserve">
<style type="text/css">
	.st0{fill:#48689A;}
</style>
<path id="Truck" class="st0" d="M20,20H0V0h20V20z M2,18h16V2H2V18z M32,20H22v-2h8v-6.8L27.4,6H24v6h4v2h-6V4h6.6l3.4,6.8V20z
	 M16,14H4v-2h12V14z M27,26c-2.2,0-4-1.8-4-4h2c0,1,1,2,2,2s2-1,2-2h2C31,24.2,29.2,26,27,26z M8,26c-2.2,0-4-1.8-4-4h2c0,1,1,2,2,2
	s2-1,2-2h2C12,24.2,10.2,26,8,26z"/>
</svg>
